<?xml version="1.0" encoding="UTF-8" standalone="no"?>
<svg
   xmlns:dc="http://purl.org/dc/elements/1.1/"
   xmlns:cc="http://creativecommons.org/ns#"
   xmlns:rdf="http://www.w3.org/1999/02/22-rdf-syntax-ns#"
   xmlns:svg="http://www.w3.org/2000/svg"
   xmlns="http://www.w3.org/2000/svg"
   viewBox="0 0 274.67294 274.67294"
   version="1.1"
   id="svg4"
   width="274.67294"
   height="274.67294">
  <metadata
     id="metadata10">
    <rdf:RDF>
      <cc:Work
         rdf:about="">
        <dc:format>image/svg+xml</dc:format>
        <dc:type
           rdf:resource="http://purl.org/dc/dcmitype/StillImage" />
        <dc:title></dc:title>
      </cc:Work>
    </rdf:RDF>
  </metadata>
  <defs
     id="defs8" />
  <circle
     style="fill:#999999"
     id="path914"
     cx="137.33647"
     cy="137.33647"
     r="137.33647" />
  <!--! Font Awesome Pro 6.2.1 by @fontawesome - https://fontawesome.com License - https://fontawesome.com/license (Commercial License) Copyright 2022 Fonticons, Inc. -->
  <path
     d="m 138.67447,93.78829 c -24.11429,0 -43.564976,19.4507 -43.564976,43.56496 0,24.11422 19.450686,43.56482 43.564976,43.56482 24.1143,0 43.56498,-19.45062 43.56498,-43.56482 0,-24.1143 -19.45068,-43.56499 -43.56498,-43.56496 z m 0,71.88785 c -15.5833,0 -28.32293,-12.70171 -28.32293,-28.3229 0,-15.62119 12.70172,-28.32293 28.32293,-28.32293 15.62121,0 28.32292,12.70168 28.32292,28.32292 0,15.62109 -12.73963,28.32282 -28.32292,28.32291 z m 55.50837,-73.669865 c 0,5.649405 -4.54986,10.161365 -10.16137,10.161365 -5.64941,0 -10.16137,-4.54986 -10.16137,-10.161365 0,-5.61153 4.54987,-10.16139 10.16137,-10.16139 5.61151,0 10.16137,4.54983 10.16137,10.16139 z m 28.85374,10.313035 c -0.64455,-13.611715 -3.75363,-25.668845 -13.72542,-35.602715 -9.93389,-9.93388 -21.99103,-13.04295 -35.60271,-13.72543 -14.02876,-0.79622 -56.07711,-0.79622 -70.10587,0 -13.573766,0.64456 -25.630926,3.75364 -35.602706,13.68751 -9.97179,9.93389 -13.04295,21.99103 -13.72544,35.602715 -0.79623,14.02876 -0.79623,56.07711 0,70.10586 0.64457,13.61151 3.75365,25.66865 13.72544,35.60252 9.97178,9.93388 21.99102,13.04296 35.602706,13.72544 14.02876,0.79622 56.07711,0.79622 70.10587,0 13.61168,-0.64456 25.66882,-3.75364 35.60271,-13.72544 9.93387,-9.93387 13.04295,-21.99101 13.72542,-35.60251 0.79623,-14.02877 0.79623,-56.03919 0,-70.06795 z m -18.12363,85.12024 c -2.95741,7.43144 -8.68266,13.15669 -16.15203,16.15203 -11.18509,4.43611 -37.72598,3.41239 -50.08645,3.41239 -12.36047,0 -38.939289,0.9858 -50.086456,-3.41239 -7.43144,-2.95742 -13.1567,-8.68267 -16.15202,-16.15203 -4.43612,-11.18503 -3.4124,-37.72587 -3.4124,-50.08628 0,-12.36047 -0.98581,-38.93929 3.4124,-50.086465 2.95741,-7.43145 8.68266,-13.1567 16.15202,-16.15201 11.185087,-4.43612 37.725986,-3.41239 50.086456,-3.41239 12.36047,0 38.93927,-0.98581 50.08645,3.41239 7.43146,2.95742 13.1567,8.68266 16.15203,16.15201 4.43612,11.185115 3.4124,37.725975 3.4124,50.086465 0,12.36042 1.02372,38.93916 -3.4124,50.08628 z"
     id="path897"
     style="fill:#ffffff;stroke-width:1" />
</svg>
