<?xml version="1.0" encoding="UTF-8" standalone="no"?>
<svg
   xmlns:dc="http://purl.org/dc/elements/1.1/"
   xmlns:cc="http://creativecommons.org/ns#"
   xmlns:rdf="http://www.w3.org/1999/02/22-rdf-syntax-ns#"
   xmlns:svg="http://www.w3.org/2000/svg"
   xmlns="http://www.w3.org/2000/svg"
   width="132.55006mm"
   height="22.309317mm"
   viewBox="0 0 132.55006 22.309317"
   version="1.1"
   id="svg8">
  <defs
     id="defs2">
    <rect
       x="160.09445"
       y="55.592064"
       width="118.13313"
       height="14.165285"
       id="rect64" />
    <rect
       x="160.09445"
       y="54.790253"
       width="122.67671"
       height="12.828937"
       id="rect58" />
    <rect
       x="74.839287"
       y="70.303574"
       width="44.601189"
       height="16.630953"
       id="rect28" />
  </defs>
  <metadata
     id="metadata5">
    <rdf:RDF>
      <cc:Work
         rdf:about="">
        <dc:format>image/svg+xml</dc:format>
        <dc:type
           rdf:resource="http://purl.org/dc/dcmitype/StillImage" />
        <dc:title></dc:title>
      </cc:Work>
    </rdf:RDF>
  </metadata>
  <g
     id="layer1"
     transform="translate(-26.858936,-34.618992)">
    <g
       aria-label="CARLOS RODIL"
       id="text20"
       style="font-style:normal;font-variant:normal;font-weight:normal;font-stretch:normal;font-size:19.05px;line-height:1.25;font-family:'Monument Grotesk';-inkscape-font-specification:'Monument Grotesk';white-space:pre;inline-size:149.337;fill:#000000;fill-opacity:1;stroke:none;stroke-width:0.264583">
      <path
         d="m 27.258936,41.711595 q 0,-2.055689 0.725537,-3.59978 0.734838,-1.544092 2.176611,-2.418457 1.441772,-0.874366 3.423047,-0.874366 2.130102,0 3.683496,1.079004 1.553393,1.079004 2.083593,3.088184 l -1.878955,0.362768 Q 37.137402,38.0374 36.12351,37.172337 q -1.013891,-0.865063 -2.502172,-0.865063 -2.399854,0 -3.469556,1.497583 -0.948779,1.292944 -0.948779,3.906738 0,2.604492 0.948779,3.925341 1.0604,1.488281 3.432349,1.488281 1.478979,0 2.474267,-0.753442 0.995288,-0.753442 1.451074,-2.06499 l 1.962671,0.511597 q -0.799951,1.841748 -2.316138,2.818432 -1.506884,0.976685 -3.571874,0.976685 -3.023072,0 -4.678784,-1.79524 -1.646411,-1.795239 -1.646411,-5.106664 z"
         style="font-style:normal;font-variant:normal;font-weight:normal;font-stretch:normal;font-size:19.05px;font-family:'Monument Grotesk';-inkscape-font-specification:'Monument Grotesk';fill:#000000;stroke-width:0.264583"
         id="path24" />
      <path
         d="m 48.606469,44.399803 h -5.66477 l -1.460376,3.981152 h -1.832446 l 5.218285,-13.33872 h 1.832447 l 5.199682,13.33872 H 50.085448 Z M 48.02976,42.874314 46.522875,38.855955 q -0.223242,-0.586011 -0.753442,-2.148706 h -0.0279 q -0.251148,0.818555 -0.734839,2.148706 l -1.488281,4.018359 z"
         style="font-style:normal;font-variant:normal;font-weight:normal;font-stretch:normal;font-size:19.05px;font-family:'Monument Grotesk';-inkscape-font-specification:'Monument Grotesk';fill:#000000;stroke-width:0.264583"
         id="path26" />
      <path
         d="m 63.749729,48.325144 -0.0186,0.05581 h -1.888257 q -0.353467,-0.576709 -0.465088,-1.16272 -0.111621,-0.586011 -0.111621,-1.981274 0,-1.339453 -0.651123,-1.860352 -0.651123,-0.520898 -2.390551,-0.520898 h -2.976563 v 5.525244 H 53.5364 v -13.33872 h 4.511352 q 1.646411,0 2.716113,0.288354 1.079004,0.288355 1.785938,1.088306 0.762744,0.84646 0.762744,2.548681 0,1.181323 -0.576709,2.055689 -0.576709,0.874365 -1.488281,1.199926 1.739428,0.651123 1.739428,2.827735 0,1.292944 0.15813,2.009179 0.15813,0.706934 0.604614,1.265039 z M 61.610325,39.04199 q 0,-1.097607 -0.483691,-1.674316 -0.47439,-0.586011 -1.265039,-0.706934 -0.660425,-0.130224 -1.813843,-0.130224 h -2.799829 v 4.855517 h 2.781226 q 0.474389,0 0.827856,-0.0186 0.353467,-0.0186 0.744141,-0.07441 0.390673,-0.06511 0.660424,-0.167432 0.279053,-0.102319 0.539502,-0.269751 0.26045,-0.176733 0.427881,-0.418579 0.167432,-0.251148 0.269751,-0.595313 0.102319,-0.353466 0.111621,-0.799951 z"
         style="font-style:normal;font-variant:normal;font-weight:normal;font-stretch:normal;font-size:19.05px;font-family:'Monument Grotesk';-inkscape-font-specification:'Monument Grotesk';fill:#000000;stroke-width:0.264583"
         id="path28" />
      <path
         d="m 74.753709,46.87407 v 1.506885 h -8.613427 v -13.33872 h 1.711523 V 46.87407 Z"
         style="font-style:normal;font-variant:normal;font-weight:normal;font-stretch:normal;font-size:19.05px;font-family:'Monument Grotesk';-inkscape-font-specification:'Monument Grotesk';fill:#000000;stroke-width:0.264583"
         id="path30" />
      <path
         d="m 74.446752,41.711595 q 0,-2.055689 0.725537,-3.59978 0.734839,-1.544092 2.176611,-2.418457 1.441773,-0.874366 3.423047,-0.874366 1.953369,0 3.38584,0.883667 1.441772,0.874366 2.176611,2.427759 0.744141,1.553394 0.744141,3.581177 0,3.116088 -1.683618,5.013647 -1.683618,1.888257 -4.622974,1.888257 -3.023071,0 -4.678784,-1.79524 -1.646411,-1.795239 -1.646411,-5.106664 z m 9.655224,3.925341 q 1.032495,-1.451074 1.032495,-3.925341 0,-2.455664 -1.032495,-3.906738 -1.013891,-1.497583 -3.255615,-1.497583 -1.162719,0 -2.055688,0.390673 -0.892969,0.390674 -1.395264,1.032495 -1.00459,1.283643 -1.00459,3.981153 0,1.27434 0.26045,2.325439 0.260449,1.051099 0.68833,1.599902 1.172021,1.488281 3.432348,1.488281 2.316138,0 3.330029,-1.488281 z"
         style="font-style:normal;font-variant:normal;font-weight:normal;font-stretch:normal;font-size:19.05px;font-family:'Monument Grotesk';-inkscape-font-specification:'Monument Grotesk';fill:#000000;stroke-width:0.264583"
         id="path32" />
      <path
         d="m 88.501709,44.037034 1.823144,-0.186035 q 0,1.53479 1.00459,2.427759 1.00459,0.883667 2.613794,0.883667 3.646289,0 3.646289,-2.530079 0,-0.651123 -0.399976,-1.0604 -0.399975,-0.418579 -1.069702,-0.604614 -0.511596,-0.167432 -1.674316,-0.381372 -0.269751,-0.04651 -1.21853,-0.241846 -1.404566,-0.325561 -2.288233,-0.725537 -0.874365,-0.409277 -1.469677,-1.106909 -0.604615,-0.772046 -0.604615,-1.944067 0,-0.939478 0.399976,-1.674317 0.409277,-0.74414 1.088306,-1.181323 0.679028,-0.446484 1.497583,-0.669726 0.818554,-0.223243 1.730127,-0.223243 2.325439,0 3.711401,1.051099 1.395263,1.041797 1.609204,3.199805 l -1.795239,0.316259 q -0.02791,-1.488281 -0.976685,-2.316137 -0.948779,-0.827857 -2.585889,-0.827857 -0.716235,0 -1.367358,0.241846 -0.641821,0.232544 -1.097607,0.762744 -0.446485,0.5302 -0.446485,1.246436 0.0093,0.418579 0.213941,0.762744 0.21394,0.334863 0.5302,0.567407 0.325562,0.223242 0.84646,0.409277 0.520898,0.186035 1.023193,0.306958 0.511597,0.111621 1.21853,0.223242 1.823145,0.297657 2.744019,0.63252 0.930176,0.325561 1.516186,1.023193 0.651123,0.734839 0.651123,2.074292 0,0.902271 -0.297656,1.618506 -0.288354,0.706933 -0.790649,1.172021 -0.492993,0.455786 -1.190625,0.762744 -0.697632,0.306958 -1.460376,0.437183 -0.762744,0.130225 -1.627808,0.130225 -1.144116,0 -2.139404,-0.297657 -0.985986,-0.297656 -1.74873,-0.855761 -0.753443,-0.558106 -1.190625,-1.441773 -0.427881,-0.883667 -0.427881,-1.981274 z"
         style="font-style:normal;font-variant:normal;font-weight:normal;font-stretch:normal;font-size:19.05px;font-family:'Monument Grotesk';-inkscape-font-specification:'Monument Grotesk';fill:#000000;stroke-width:0.264583"
         id="path34" />
      <path
         d="m 116.07212,48.325144 -0.0186,0.05581 h -1.88825 q -0.35347,-0.576709 -0.46509,-1.16272 -0.11162,-0.586011 -0.11162,-1.981274 0,-1.339453 -0.65113,-1.860352 -0.65112,-0.520898 -2.39055,-0.520898 h -2.97656 v 5.525244 h -1.71152 v -13.33872 h 4.51135 q 1.64641,0 2.71611,0.288354 1.07901,0.288355 1.78594,1.088306 0.76274,0.84646 0.76274,2.548681 0,1.181323 -0.5767,2.055689 -0.57671,0.874365 -1.48829,1.199926 1.73943,0.651123 1.73943,2.827735 0,1.292944 0.15813,2.009179 0.15813,0.706934 0.60462,1.265039 z m -2.13941,-9.283154 q 0,-1.097607 -0.48369,-1.674316 -0.47439,-0.586011 -1.26504,-0.706934 -0.66042,-0.130224 -1.81384,-0.130224 h -2.79983 v 4.855517 h 2.78123 q 0.47439,0 0.82785,-0.0186 0.35347,-0.0186 0.74414,-0.07441 0.39068,-0.06511 0.66043,-0.167432 0.27905,-0.102319 0.5395,-0.269751 0.26045,-0.176733 0.42788,-0.418579 0.16743,-0.251148 0.26975,-0.595313 0.10232,-0.353466 0.11162,-0.799951 z"
         style="font-style:normal;font-variant:normal;font-weight:normal;font-stretch:normal;font-size:19.05px;font-family:'Monument Grotesk';-inkscape-font-specification:'Monument Grotesk';fill:#000000;stroke-width:0.264583"
         id="path36" />
      <path
         d="m 117.68132,41.711595 q 0,-2.055689 0.72554,-3.59978 0.73484,-1.544092 2.17661,-2.418457 1.44177,-0.874366 3.42305,-0.874366 1.95337,0 3.38584,0.883667 1.44177,0.874366 2.17661,2.427759 0.74414,1.553394 0.74414,3.581177 0,3.116088 -1.68362,5.013647 -1.68362,1.888257 -4.62297,1.888257 -3.02307,0 -4.67879,-1.79524 -1.64641,-1.795239 -1.64641,-5.106664 z m 9.65523,3.925341 q 1.03249,-1.451074 1.03249,-3.925341 0,-2.455664 -1.03249,-3.906738 -1.0139,-1.497583 -3.25562,-1.497583 -1.16272,0 -2.05569,0.390673 -0.89297,0.390674 -1.39526,1.032495 -1.00459,1.283643 -1.00459,3.981153 0,1.27434 0.26045,2.325439 0.26045,1.051099 0.68833,1.599902 1.17202,1.488281 3.43235,1.488281 2.31613,0 3.33003,-1.488281 z"
         style="font-style:normal;font-variant:normal;font-weight:normal;font-stretch:normal;font-size:19.05px;font-family:'Monument Grotesk';-inkscape-font-specification:'Monument Grotesk';fill:#000000;stroke-width:0.264583"
         id="path38" />
      <path
         d="m 132.66645,35.042235 h 4.52996 q 2.96726,0 4.64157,1.813842 1.68362,1.804541 1.68362,4.855518 0,3.12539 -1.68362,4.902026 -1.68361,1.767334 -4.64157,1.767334 h -4.52996 z m 4.34392,11.850439 q 1.29295,0 2.22312,-0.362769 0.93018,-0.37207 1.39526,-1.041797 0.5023,-0.725537 0.72554,-1.599902 0.22324,-0.883667 0.22324,-2.176611 0,-1.283643 -0.22324,-2.148706 -0.22324,-0.865064 -0.72554,-1.599903 -0.47438,-0.68833 -1.42316,-1.0604 -0.93948,-0.37207 -2.19522,-0.37207 h -2.6324 v 10.362158 z"
         style="font-style:normal;font-variant:normal;font-weight:normal;font-stretch:normal;font-size:19.05px;font-family:'Monument Grotesk';-inkscape-font-specification:'Monument Grotesk';fill:#000000;stroke-width:0.264583"
         id="path40" />
      <path
         d="m 145.90285,35.042235 h 1.73013 v 13.33872 h -1.73013 z"
         style="font-style:normal;font-variant:normal;font-weight:normal;font-stretch:normal;font-size:19.05px;font-family:'Monument Grotesk';-inkscape-font-specification:'Monument Grotesk';fill:#000000;stroke-width:0.264583"
         id="path42" />
      <path
         d="m 159.40901,46.87407 v 1.506885 h -8.61343 v -13.33872 h 1.71152 V 46.87407 Z"
         style="font-style:normal;font-variant:normal;font-weight:normal;font-stretch:normal;font-size:19.05px;font-family:'Monument Grotesk';-inkscape-font-specification:'Monument Grotesk';fill:#000000;stroke-width:0.264583"
         id="path44" />
    </g>
    <g
       aria-label="CINEMATOGRAPHER"
       transform="matrix(1.0102481,0,0,1,-4.8275349,-3.650061)"
       id="text24"
       style="font-size:10.5833px;line-height:0;font-family:'Monument Grotesk';-inkscape-font-specification:'Monument Grotesk';white-space:pre;inline-size:133.202;fill:#999999;stroke-width:0.264583">
      <path
         d="m 32.857362,57.54564 q 0,-0.903279 0.318804,-1.58176 0.322892,-0.678481 0.956413,-1.062682 0.633522,-0.3842 1.504103,-0.3842 0.935977,0 1.618546,0.47412 0.682568,0.474119 0.915541,1.356962 l -0.825622,0.159402 q -0.14714,-0.5763 -0.592649,-0.956413 -0.445509,-0.380113 -1.099467,-0.380113 -1.054507,0 -1.524539,0.658045 -0.416898,0.568126 -0.416898,1.716639 0,1.144426 0.416898,1.724814 0.465945,0.653958 1.50819,0.653958 0.649871,0 1.087205,-0.331066 0.437334,-0.331067 0.637609,-0.907367 l 0.862407,0.224798 q -0.351502,0.809273 -1.017722,1.238433 -0.662132,0.42916 -1.569499,0.42916 -1.328351,0 -2.055879,-0.788837 -0.723441,-0.788837 -0.723441,-2.243893 z"
         style="font-size:8.37066px;line-height:2.55;fill:#999999;stroke-width:0.264583"
         id="path47" />
      <path
         d="m 39.082223,54.615092 h 0.760226 v 5.861097 h -0.760226 z"
         style="font-size:8.37066px;line-height:2.55;fill:#999999;stroke-width:0.264583"
         id="path49" />
      <path
         d="m 41.232109,54.615092 h 0.81336 l 2.198933,3.543634 q 0.138966,0.22071 0.735703,1.320177 h 0.01226 q -0.0041,-0.06948 -0.02044,-0.339241 -0.01226,-0.273844 -0.01635,-0.453683 -0.0082,-0.318804 -0.0082,-0.69483 v -3.376057 h 0.747964 v 5.861097 H 44.841139 L 42.662642,56.936642 Q 42.556374,56.77724 42.327489,56.356255 l -0.384201,-0.743877 h -0.0082 l 0.02452,0.829708 q 0.01635,0.588563 0.01635,0.662133 v 3.37197 h -0.743877 z"
         style="font-size:8.37066px;line-height:2.55;fill:#999999;stroke-width:0.264583"
         id="path51" />
      <path
         d="m 47.080944,54.615092 h 3.784781 v 0.678481 h -3.032729 v 1.884216 h 2.722099 v 0.678481 h -2.722099 v 1.941437 h 3.032729 v 0.678482 h -3.784781 z"
         style="font-size:8.37066px;line-height:2.55;fill:#999999;stroke-width:0.264583"
         id="path53" />
      <path
         d="m 51.948843,54.615092 h 1.09538 l 1.238432,3.314748 q 0.416898,1.111729 0.604911,1.700291 h 0.0082 q 0.22071,-0.674394 0.592649,-1.700291 l 1.238432,-3.314748 h 1.099467 v 5.861097 h -0.747964 v -3.539547 q 0,-0.355589 0.0082,-0.613085 l 0.03678,-0.727528 h -0.0082 q -0.351502,1.021809 -0.478207,1.340613 l -1.365137,3.539547 h -0.7684 l -1.365137,-3.539547 q -0.175751,-0.45777 -0.478207,-1.340613 h -0.0082 l 0.02452,0.727528 q 0.01635,0.514991 0.01635,0.613085 v 3.539547 h -0.743877 z"
         style="font-size:8.37066px;line-height:2.55;fill:#999999;stroke-width:0.264583"
         id="path55" />
      <path
         d="m 62.469388,58.726852 h -2.489127 l -0.641696,1.749337 H 58.53338 l 2.292939,-5.861097 h 0.805186 l 2.284765,5.861097 H 63.119259 Z M 62.21598,58.056545 61.553847,56.290859 q -0.09809,-0.257496 -0.331066,-0.944152 h -0.01226 q -0.110355,0.359677 -0.322891,0.944152 l -0.653958,1.765686 z"
         style="font-size:8.37066px;line-height:2.55;fill:#999999;stroke-width:0.264583"
         id="path57" />
      <path
         d="m 64.84816,55.277224 h -1.953699 v -0.662132 h 4.663537 v 0.662132 h -1.949612 v 5.198965 H 64.84816 Z"
         style="font-size:8.37066px;line-height:2.55;fill:#999999;stroke-width:0.264583"
         id="path59" />
      <path
         d="m 67.423119,57.54564 q 0,-0.903279 0.318805,-1.58176 0.322892,-0.678481 0.956413,-1.062682 0.633522,-0.3842 1.504103,-0.3842 0.85832,0 1.487754,0.388288 0.633522,0.3842 0.956413,1.066768 0.326979,0.682569 0.326979,1.573586 0,1.369224 -0.739789,2.203021 -0.73979,0.829709 -2.031357,0.829709 -1.328352,0 -2.05588,-0.788837 -0.723441,-0.788837 -0.723441,-2.243893 z m 4.242552,1.724814 q 0.453683,-0.637609 0.453683,-1.724814 0,-1.07903 -0.453683,-1.716639 -0.445509,-0.658045 -1.430533,-0.658045 -0.510905,0 -0.903279,0.171664 -0.392375,0.171664 -0.613086,0.453683 -0.441421,0.564039 -0.441421,1.749337 0,0.559952 0.114442,1.021809 0.114443,0.461858 0.302456,0.703005 0.514992,0.653958 1.50819,0.653958 1.017722,0 1.463231,-0.653958 z"
         style="font-size:8.37066px;line-height:2.55;fill:#999999;stroke-width:0.264583"
         id="path61" />
      <path
         d="m 79.006344,57.369889 v 3.1063 h -0.62126 l -0.0654,-0.805186 q -0.613086,0.907367 -1.876042,0.907367 -1.328352,0 -2.05588,-0.788837 -0.72344,-0.788837 -0.72344,-2.243893 0,-0.903279 0.318804,-1.58176 0.322892,-0.678481 0.956413,-1.062682 0.633522,-0.3842 1.504103,-0.3842 0.93189,0 1.59811,0.47412 0.670306,0.470032 0.903279,1.356962 l -0.817447,0.159402 q -0.159403,-0.584475 -0.59265,-0.9605 -0.42916,-0.376026 -1.074943,-0.376026 -1.054507,0 -1.524539,0.658045 -0.425073,0.608998 -0.425073,1.716639 0,1.132165 0.425073,1.741163 0.45777,0.637609 1.589935,0.637609 0.833796,0 1.267043,-0.465945 0.437334,-0.465945 0.457771,-1.377399 h -1.741163 v -0.711179 z"
         style="font-size:8.37066px;line-height:2.55;fill:#999999;stroke-width:0.264583"
         id="path63" />
      <path
         d="m 84.630385,60.451665 -0.0082,0.02452 h -0.829709 q -0.155315,-0.253409 -0.204362,-0.510905 -0.04905,-0.257496 -0.04905,-0.870581 0,-0.588562 -0.286107,-0.817447 -0.286106,-0.228886 -1.05042,-0.228886 h -1.307915 v 2.427819 h -0.752052 v -5.861097 h 1.98231 q 0.723441,0 1.193473,0.126704 0.474119,0.126705 0.784749,0.478207 0.335154,0.371938 0.335154,1.119903 0,0.519079 -0.253409,0.903279 -0.253409,0.3842 -0.653958,0.527253 0.764313,0.286107 0.764313,1.24252 0,0.568126 0.06948,0.882843 0.06948,0.31063 0.265671,0.555864 z M 83.69032,56.372603 q 0,-0.482293 -0.212536,-0.735702 -0.208449,-0.257496 -0.555864,-0.31063 -0.290194,-0.05722 -0.797011,-0.05722 h -1.230258 v 2.133537 h 1.222083 q 0.208449,0 0.363764,-0.0082 0.155315,-0.0082 0.326979,-0.0327 0.171664,-0.02861 0.290194,-0.07357 0.122617,-0.04496 0.23706,-0.118529 0.114442,-0.07766 0.188013,-0.183926 0.07357,-0.110355 0.11853,-0.261583 0.04496,-0.155315 0.04905,-0.351503 z"
         style="font-size:8.37066px;line-height:2.55;fill:#999999;stroke-width:0.264583"
         id="path65" />
      <path
         d="m 88.938331,58.726852 h -2.489127 l -0.641696,1.749337 h -0.805186 l 2.29294,-5.861097 h 0.805185 l 2.284765,5.861097 H 89.588201 Z M 88.684922,58.056545 88.02279,56.290859 q -0.09809,-0.257496 -0.331066,-0.944152 h -0.01226 q -0.110355,0.359677 -0.322892,0.944152 l -0.653957,1.765686 z"
         style="font-size:8.37066px;line-height:2.55;fill:#999999;stroke-width:0.264583"
         id="path67" />
      <path
         d="m 91.104567,54.615092 h 1.974135 q 0.711179,0 1.185298,0.138966 0.478207,0.134879 0.792924,0.506817 0.335154,0.3842 0.335154,1.132165 0,1.295654 -1.173037,1.589935 -0.506817,0.114442 -1.148514,0.114442 h -1.213909 v 2.378772 h -0.752051 z m 1.96596,2.840629 q 0.523167,0 0.829709,-0.06948 0.306543,-0.07357 0.519079,-0.290194 0.232973,-0.232972 0.232973,-0.703004 -0.0082,-0.220711 -0.05722,-0.392375 -0.04496,-0.171664 -0.114443,-0.290194 -0.0654,-0.11853 -0.183926,-0.200274 -0.114442,-0.08583 -0.228885,-0.130792 -0.114443,-0.04496 -0.290194,-0.06948 -0.175751,-0.02861 -0.326979,-0.0327 -0.151227,-0.0082 -0.371938,-0.0082 h -1.222084 v 2.186671 z"
         style="font-size:8.37066px;line-height:2.55;fill:#999999;stroke-width:0.264583"
         id="path69" />
      <path
         d="m 96.299441,54.615092 h 0.760226 v 2.562697 h 2.938722 v -2.562697 h 0.764311 v 5.861097 H 99.998389 V 57.85627 h -2.938722 v 2.619919 h -0.760226 z"
         style="font-size:8.37066px;line-height:2.55;fill:#999999;stroke-width:0.264583"
         id="path71" />
      <path
         d="m 102.14828,54.615092 h 3.78478 v 0.678481 h -3.03273 v 1.884216 h 2.7221 v 0.678481 h -2.7221 v 1.941437 h 3.03273 v 0.678482 h -3.78478 z"
         style="font-size:8.37066px;line-height:2.55;fill:#999999;stroke-width:0.264583"
         id="path73" />
      <path
         d="m 111.50396,60.451665 -0.008,0.02452 h -0.82971 q -0.15531,-0.253409 -0.20436,-0.510905 -0.049,-0.257496 -0.049,-0.870581 0,-0.588562 -0.28611,-0.817447 -0.28611,-0.228886 -1.05042,-0.228886 h -1.30792 v 2.427819 h -0.75205 v -5.861097 h 1.98231 q 0.72344,0 1.19348,0.126704 0.47411,0.126705 0.78474,0.478207 0.33516,0.371938 0.33516,1.119903 0,0.519079 -0.25341,0.903279 -0.25341,0.3842 -0.65396,0.527253 0.76431,0.286107 0.76431,1.24252 0,0.568126 0.0695,0.882843 0.0695,0.31063 0.26567,0.555864 z m -0.94007,-4.079062 q 0,-0.482293 -0.21253,-0.735702 -0.20845,-0.257496 -0.55587,-0.31063 -0.29019,-0.05722 -0.79701,-0.05722 h -1.23026 v 2.133537 h 1.22209 q 0.20845,0 0.36376,-0.0082 0.15532,-0.0082 0.32698,-0.0327 0.17166,-0.02861 0.29019,-0.07357 0.12262,-0.04496 0.23706,-0.118529 0.11445,-0.07766 0.18802,-0.183926 0.0736,-0.110355 0.11853,-0.261583 0.045,-0.155315 0.049,-0.351503 z"
         style="font-size:8.37066px;line-height:2.55;fill:#999999;stroke-width:0.264583"
         id="path75" />
    </g>
    <text
       xml:space="preserve"
       id="text26"
       style="font-size:10.5833px;line-height:1.25;font-family:'Monument Grotesk';-inkscape-font-specification:'Monument Grotesk';white-space:pre;shape-inside:url(#rect28);" />
    <text
       xml:space="preserve"
       id="text56"
       style="font-size:10.5833px;line-height:1.25;font-family:'Monument Grotesk';-inkscape-font-specification:'Monument Grotesk';white-space:pre;shape-inside:url(#rect58);" />
    <text
       xml:space="preserve"
       id="text62"
       style="font-size:10.5833px;line-height:1.25;font-family:'Monument Grotesk';-inkscape-font-specification:'Monument Grotesk';white-space:pre;shape-inside:url(#rect64);" />
  </g>
</svg>
