<?xml version="1.0" encoding="UTF-8" standalone="no"?>
<svg
   xmlns:dc="http://purl.org/dc/elements/1.1/"
   xmlns:cc="http://creativecommons.org/ns#"
   xmlns:rdf="http://www.w3.org/1999/02/22-rdf-syntax-ns#"
   xmlns:svg="http://www.w3.org/2000/svg"
   xmlns="http://www.w3.org/2000/svg"
   viewBox="0 0 274.67294 274.67294"
   version="1.1"
   id="svg4"
   width="274.67294"
   height="274.67294">
  <metadata
     id="metadata10">
    <rdf:RDF>
      <cc:Work
         rdf:about="">
        <dc:format>image/svg+xml</dc:format>
        <dc:type
           rdf:resource="http://purl.org/dc/dcmitype/StillImage" />
        <dc:title></dc:title>
      </cc:Work>
    </rdf:RDF>
  </metadata>
  <defs
     id="defs8" />
  <circle
     style="fill:#999999"
     id="path914"
     cx="137.33647"
     cy="137.33647"
     r="137.33647" />
  <!--! Font Awesome Pro 6.2.1 by @fontawesome - https://fontawesome.com License - https://fontawesome.com/license (Commercial License) Copyright 2022 Fonticons, Inc. -->
  <path
     d="m 229.52071,94.183465 c -0.83091,18.113195 -13.46028,42.914985 -37.97125,74.405355 -25.30032,32.90287 -46.6955,49.35431 -64.22707,49.35431 -10.843,0 -20.02423,-10.01211 -27.543695,-30.03633 -14.623507,-53.67488 -20.855102,-85.12372 -32.944413,-85.12372 -1.412498,0 -6.273159,2.94963 -14.623507,8.76578 l -8.72424,-11.29997 C 64.923249,81.429448 85.404462,60.491254 98.241572,59.328024 c 14.498858,-1.412497 23.389278,8.516523 26.754338,29.703978 11.92315,75.402428 17.19924,86.785478 38.88523,52.636298 7.76872,-12.29703 11.96467,-21.64445 12.54628,-28.08377 1.99411,-19.068714 -14.87276,-17.780842 -26.29737,-12.87866 9.13969,-29.953234 26.62972,-44.49365 52.42857,-43.662768 19.02716,0.498527 28.04222,12.920188 26.96209,37.140363 z"
     id="path926"
     style="stroke-width:0.999997;fill:#ffffff" />
</svg>
